<svg width="776" height="776" viewBox="0 0 776 776" fill="none" xmlns="http://www.w3.org/2000/svg">
<circle cx="388" cy="388" r="387.112" fill="#D7C0A3"/>
<circle cx="388" cy="388" r="326.085" fill="#B21807"/>
<circle cx="388" cy="388" r="298.146" fill="#ECDB55"/>
<rect x="168" y="264.459" width="75" height="122" rx="27" transform="rotate(-53.718 168 264.459)" fill="#976D63"/>
<rect x="184.651" y="265.828" width="57.5" height="93.5334" rx="27" transform="rotate(-53.718 184.651 265.828)" fill="#F4BEB1"/>
<rect x="239.364" y="471" width="75" height="122" rx="27" fill="#976D63"/>
<rect x="248.114" y="485.233" width="57.5" height="93.5334" rx="27" fill="#F4BEB1"/>
<rect x="392" y="331" width="75" height="122" rx="27" fill="#976D63"/>
<rect x="400.75" y="345.233" width="57.5" height="93.5334" rx="27" fill="#F4BEB1"/>
<rect x="467" y="125" width="75" height="122" rx="27" transform="rotate(55.695 467 125)" fill="#976D63"/>
<rect x="460.174" y="140.25" width="57.5" height="93.5334" rx="27" transform="rotate(55.695 460.174 140.25)" fill="#F4BEB1"/>
<rect x="477.734" y="636.199" width="75" height="122" rx="27" transform="rotate(-130.025 477.734 636.199)" fill="#976D63"/>
<rect x="483.006" y="620.345" width="57.5" height="93.5334" rx="27" transform="rotate(-130.025 483.006 620.345)" fill="#F4BEB1"/>
<rect x="108.851" y="383.974" width="75" height="122" rx="27" transform="rotate(-44.9365 108.851 383.974)" fill="#976D63"/>
<rect x="125.099" y="387.869" width="57.5" height="93.5334" rx="27" transform="rotate(-44.9365 125.099 387.869)" fill="#F4BEB1"/>
<rect x="571.157" y="274.943" width="75" height="122" rx="27" transform="rotate(16.3653 571.157 274.943)" fill="#976D63"/>
<rect x="575.542" y="291.065" width="57.5" height="93.5334" rx="27" transform="rotate(16.3653 575.542 291.065)" fill="#F4BEB1"/>
<path d="M255.106 249.018C246.996 240.907 246.14 228.046 253.105 218.932L280.439 183.164C283.294 179.428 286.633 176.089 290.369 173.234L326.137 145.9C335.251 138.935 348.112 139.791 356.222 147.902V147.902C366.931 158.61 364.476 176.579 351.287 184.022L324.18 199.322C316.797 203.489 310.693 209.593 306.527 216.975L291.227 244.083C283.783 257.271 265.815 259.726 255.106 249.018V249.018Z" fill="#9A832B"/>
<path d="M252.791 246.703C244.681 238.592 243.825 225.731 250.79 216.617L278.124 180.849C280.979 177.113 284.318 173.774 288.054 170.92L323.822 143.585C332.936 136.62 345.797 137.476 353.907 145.587V145.587C364.616 156.295 362.161 174.264 348.973 181.707L321.865 197.007C314.482 201.174 308.378 207.278 304.212 214.66L288.912 241.768C281.468 254.956 263.5 257.411 252.791 246.703V246.703Z" fill="#EFCC44"/>
<path d="M243.254 441.594C248.989 431.66 261.19 427.505 271.796 431.874L313.42 449.019C317.768 450.81 321.857 453.171 325.581 456.041L361.242 483.516C370.328 490.516 372.831 503.16 367.095 513.094V513.094C359.523 526.209 341.531 528.488 330.928 517.676L309.134 495.452C303.198 489.399 295.723 485.083 287.513 482.969L257.369 475.207C242.704 471.43 235.682 454.709 243.254 441.594V441.594Z" fill="#9A832B"/>
<path d="M244.891 438.759C250.626 428.825 262.827 424.67 273.433 429.039L315.057 446.184C319.404 447.975 323.494 450.336 327.218 453.205L362.879 480.68C371.965 487.681 374.467 500.325 368.732 510.259V510.259C361.16 523.374 343.168 525.653 332.565 514.841L310.77 492.616C304.835 486.564 297.359 482.248 289.15 480.134L259.006 472.371C244.341 468.595 237.319 451.874 244.891 438.759V438.759Z" fill="#EFCC44"/>
<path d="M432.944 522.222C427.061 512.376 429.373 499.695 438.353 492.559L473.599 464.553C477.279 461.629 481.333 459.206 485.653 457.351L527.016 439.584C537.555 435.057 549.817 439.029 555.701 448.875V448.875C563.468 461.875 556.697 478.7 542.09 482.696L512.066 490.909C503.889 493.145 496.479 497.573 490.635 503.714L469.176 526.262C458.736 537.232 440.711 535.222 432.944 522.222V522.222Z" fill="#9A832B"/>
<path d="M431.265 519.412C425.381 509.565 427.694 496.885 436.674 489.749L471.919 461.743C475.6 458.818 479.654 456.396 483.974 454.54L525.337 436.773C535.876 432.246 548.138 436.218 554.021 446.065V446.065C561.789 459.065 555.018 475.889 540.411 479.885L510.387 488.098C502.21 490.335 494.8 494.763 488.956 500.903L467.497 523.451C457.056 534.422 439.032 532.412 431.265 519.412V519.412Z" fill="#EFCC44"/>
<path d="M341.732 396.757C334.96 387.499 336.085 374.659 344.364 366.72L376.857 335.563C380.251 332.309 384.062 329.521 388.191 327.272L427.726 305.742C437.799 300.256 450.377 303.073 457.149 312.331V312.331C466.09 324.554 460.91 341.934 446.737 347.269L417.605 358.233C409.671 361.219 402.704 366.316 397.455 372.973L378.182 397.415C368.805 409.307 350.672 408.98 341.732 396.757V396.757Z" fill="#9A832B"/>
<path d="M339.799 394.114C333.027 384.857 334.152 372.016 342.431 364.078L374.925 332.921C378.318 329.667 382.129 326.879 386.258 324.63L425.793 303.1C435.867 297.614 448.445 300.431 455.217 309.688V309.688C464.157 321.911 458.978 339.292 444.804 344.626L415.672 355.591C407.739 358.577 400.771 363.674 395.523 370.33L376.249 394.773C366.873 406.665 348.74 406.337 339.799 394.114V394.114Z" fill="#EFCC44"/>
<path d="M575.486 229.337C585.495 223.736 598.105 226.407 604.983 235.586L631.977 271.612C634.797 275.374 637.103 279.495 638.835 283.866L655.421 325.716C659.647 336.379 655.329 348.524 645.32 354.126V354.126C632.104 361.521 615.479 354.276 611.899 339.561L604.541 309.316C602.538 301.079 598.322 293.546 592.35 287.53L570.419 265.44C559.75 254.692 562.27 236.733 575.486 229.337V229.337Z" fill="#9A832B"/>
<path d="M578.343 227.738C588.352 222.137 600.962 224.808 607.84 233.987L634.834 270.013C637.654 273.776 639.96 277.896 641.692 282.267L658.278 324.118C662.504 334.781 658.186 346.925 648.177 352.527V352.527C634.961 359.922 618.336 352.677 614.756 337.962L607.398 307.717C605.394 299.48 601.179 291.947 595.207 285.931L573.276 263.841C562.607 253.094 565.127 235.134 578.343 227.738V227.738Z" fill="#EFCC44"/>
<path d="M179.589 397.973C173.477 388.267 175.492 375.536 184.302 368.192L218.881 339.367C222.493 336.357 226.488 333.841 230.764 331.884L271.699 313.153C282.129 308.38 294.481 312.063 300.593 321.769V321.769C308.663 334.584 302.289 351.562 287.779 355.899L257.955 364.814C249.834 367.242 242.529 371.842 236.831 378.118L215.906 401.163C205.726 412.374 187.659 410.788 179.589 397.973V397.973Z" fill="#9A832B"/>
<path d="M177.845 395.203C171.732 385.497 173.747 372.766 182.557 365.422L217.137 336.597C220.748 333.587 224.744 331.07 229.019 329.114L269.954 310.382C280.384 305.61 292.736 309.293 298.849 318.999V318.999C306.919 331.814 300.544 348.792 286.034 353.129L256.211 362.044C248.089 364.471 240.784 369.071 235.086 375.347L214.161 398.392C203.981 409.604 185.915 408.017 177.845 395.203V395.203Z" fill="#EFCC44"/>
<path d="M276 606.865C276 595.395 284.489 585.695 295.858 584.176L340.479 578.212C345.139 577.589 349.861 577.589 354.521 578.212L399.142 584.176C410.511 585.695 419 595.395 419 606.865V606.865C419 622.009 404.558 632.979 389.969 628.917L359.982 620.567C351.816 618.293 343.184 618.293 335.018 620.567L305.031 628.917C290.442 632.979 276 622.009 276 606.865V606.865Z" fill="#9A832B"/>
<path d="M276 603.591C276 592.121 284.489 582.422 295.858 580.902L340.479 574.938C345.139 574.316 349.861 574.316 354.521 574.938L399.142 580.902C410.511 582.422 419 592.121 419 603.591V603.591C419 618.735 404.558 629.705 389.969 625.643L359.982 617.293C351.816 615.019 343.184 615.019 335.018 617.293L305.031 625.643C290.442 629.705 276 618.735 276 603.591V603.591Z" fill="#EFCC44"/>
</svg>
