<svg width="776" height="776" viewBox="0 0 776 776" fill="none" xmlns="http://www.w3.org/2000/svg">
<circle cx="388" cy="388" r="387.112" fill="#D7C0A3"/>
<circle cx="388" cy="388" r="326.085" fill="#B21807"/>
<circle cx="388" cy="388" r="298.146" fill="#ECDB55"/>
<path d="M310.022 317.417C301.393 298.466 322.639 279.864 340.284 290.92L410.418 334.865C422.341 342.337 423.688 359.191 413.101 368.46L377.263 399.839C366.677 409.108 350.148 405.547 344.317 392.741L310.022 317.417Z" fill="#5F895F"/>
<rect x="321.452" y="305.323" width="7.09039" height="100.26" rx="3.5452" transform="rotate(-41.2046 321.452 305.323)" fill="#A9D1A9"/>
<path d="M368.746 486.545C357.317 503.951 330.25 495.901 330.192 475.077L329.962 392.314C329.922 378.243 343.462 368.115 356.949 372.127L402.606 385.707C416.093 389.719 421.896 405.599 414.173 417.362L368.746 486.545Z" fill="#5F895F"/>
<rect x="352.42" y="483.326" width="7.09039" height="100.26" rx="3.5452" transform="rotate(-163.435 352.42 483.326)" fill="#A9D1A9"/>
<path d="M466.758 332.075C487.48 330.02 498.235 356.13 482.078 369.267L417.86 421.478C406.943 430.354 390.555 426.192 385.196 413.182L367.053 369.139C361.694 356.128 370.395 341.631 384.398 340.243L466.758 332.075Z" fill="#5F895F"/>
<rect x="474.519" y="346.795" width="7.09039" height="100.26" rx="3.5452" transform="rotate(67.612 474.519 346.795)" fill="#A9D1A9"/>
</svg>
