<svg width="776" height="776" viewBox="0 0 776 776" fill="none" xmlns="http://www.w3.org/2000/svg">
<circle cx="388" cy="388" r="387.112" fill="#D7C0A3"/>
<circle cx="388" cy="388" r="326.085" fill="#B21807"/>
<circle cx="388" cy="388" r="298.146" fill="#ECDB55"/>
<rect x="146" y="259.456" width="75" height="122" rx="27" transform="rotate(-45 146 259.456)" fill="#976D63"/>
<rect x="162.251" y="263.334" width="57.5" height="93.5334" rx="27" transform="rotate(-45 162.251 263.334)" fill="#F4BEB1"/>
<rect x="307.05" y="349.255" width="75" height="122" rx="27" transform="rotate(46.9552 307.05 349.255)" fill="#976D63"/>
<rect x="302.62" y="365.365" width="57.5" height="93.5334" rx="27" transform="rotate(46.9552 302.62 365.365)" fill="#F4BEB1"/>
<rect x="386.04" y="495.7" width="75" height="122" rx="27" transform="rotate(-35.2219 386.04 495.7)" fill="#976D63"/>
<rect x="401.397" y="502.281" width="57.5" height="93.5334" rx="27" transform="rotate(-35.2219 401.397 502.281)" fill="#F4BEB1"/>
<rect x="391.077" y="411.786" width="75" height="122" rx="27" transform="rotate(-79.4719 391.077 411.786)" fill="#976D63"/>
<rect x="406.669" y="405.784" width="57.5" height="93.5334" rx="27" transform="rotate(-79.4719 406.669 405.784)" fill="#F4BEB1"/>
<rect x="539.541" y="141.694" width="75" height="122" rx="27" transform="rotate(82.2253 539.541 141.694)" fill="#976D63"/>
<rect x="526.622" y="152.289" width="57.5" height="93.5334" rx="27" transform="rotate(82.2253 526.622 152.289)" fill="#F4BEB1"/>
<circle cx="276.5" cy="212.5" r="53.5" fill="#AA4400"/>
<circle cx="261.522" cy="185.728" r="12.9854" fill="#B57144"/>
<circle cx="261.522" cy="185.728" r="12.9854" fill="#B57144"/>
<circle cx="248.537" cy="219.572" r="12.9854" fill="#B57144"/>
<circle cx="248.537" cy="219.572" r="12.9854" fill="#B57144"/>
<circle cx="292.096" cy="219.572" r="22.1627" fill="#B57144"/>
<circle cx="292.096" cy="219.572" r="22.1627" fill="#B57144"/>
<circle cx="185.5" cy="490.5" r="53.5" fill="#AA4400"/>
<circle cx="170.522" cy="463.728" r="12.9854" fill="#B57144"/>
<circle cx="170.522" cy="463.728" r="12.9854" fill="#B57144"/>
<circle cx="157.537" cy="497.572" r="12.9854" fill="#B57144"/>
<circle cx="157.537" cy="497.572" r="12.9854" fill="#B57144"/>
<circle cx="201.096" cy="497.572" r="22.1627" fill="#B57144"/>
<circle cx="201.096" cy="497.572" r="22.1627" fill="#B57144"/>
<circle cx="526.5" cy="543.5" r="53.5" fill="#AA4400"/>
<circle cx="511.522" cy="516.728" r="12.9854" fill="#B57144"/>
<circle cx="511.522" cy="516.728" r="12.9854" fill="#B57144"/>
<circle cx="498.537" cy="550.572" r="12.9854" fill="#B57144"/>
<circle cx="498.537" cy="550.572" r="12.9854" fill="#B57144"/>
<circle cx="542.096" cy="550.572" r="22.1627" fill="#B57144"/>
<circle cx="542.096" cy="550.572" r="22.1627" fill="#B57144"/>
<circle cx="489.5" cy="294.5" r="53.5" fill="#AA4400"/>
<circle cx="474.522" cy="267.728" r="12.9854" fill="#B57144"/>
<circle cx="474.522" cy="267.728" r="12.9854" fill="#B57144"/>
<circle cx="461.537" cy="301.572" r="12.9854" fill="#B57144"/>
<circle cx="461.537" cy="301.572" r="12.9854" fill="#B57144"/>
<circle cx="505.096" cy="301.572" r="22.1627" fill="#B57144"/>
<circle cx="505.096" cy="301.572" r="22.1627" fill="#B57144"/>
<circle cx="350.5" cy="496.5" r="53.5" fill="#AA4400"/>
<circle cx="335.522" cy="469.728" r="12.9854" fill="#B57144"/>
<circle cx="335.522" cy="469.728" r="12.9854" fill="#B57144"/>
<circle cx="322.537" cy="503.572" r="12.9854" fill="#B57144"/>
<circle cx="322.537" cy="503.572" r="12.9854" fill="#B57144"/>
<circle cx="366.096" cy="503.572" r="22.1627" fill="#B57144"/>
<circle cx="366.096" cy="503.572" r="22.1627" fill="#B57144"/>
<circle cx="269.934" cy="368.057" r="53.5" fill="#AA4400"/>
<circle cx="254.956" cy="341.285" r="12.9854" fill="#B57144"/>
<circle cx="254.956" cy="341.285" r="12.9854" fill="#B57144"/>
<circle cx="241.97" cy="375.129" r="12.9854" fill="#B57144"/>
<circle cx="241.97" cy="375.129" r="12.9854" fill="#B57144"/>
<circle cx="285.529" cy="375.129" r="22.1627" fill="#B57144"/>
<circle cx="285.529" cy="375.129" r="22.1627" fill="#B57144"/>
<circle cx="408.036" cy="159" r="53.5" fill="#AA4400"/>
<circle cx="393.058" cy="132.228" r="12.9854" fill="#B57144"/>
<circle cx="393.058" cy="132.228" r="12.9854" fill="#B57144"/>
<circle cx="380.073" cy="166.072" r="12.9854" fill="#B57144"/>
<circle cx="380.073" cy="166.072" r="12.9854" fill="#B57144"/>
<circle cx="423.632" cy="166.072" r="22.1627" fill="#B57144"/>
<circle cx="423.632" cy="166.072" r="22.1627" fill="#B57144"/>
<circle cx="596.5" cy="410.228" r="53.5" fill="#AA4400"/>
<circle cx="581.522" cy="383.456" r="12.9854" fill="#B57144"/>
<circle cx="581.522" cy="383.456" r="12.9854" fill="#B57144"/>
<circle cx="568.537" cy="417.3" r="12.9854" fill="#B57144"/>
<circle cx="568.537" cy="417.3" r="12.9854" fill="#B57144"/>
<circle cx="612.096" cy="417.3" r="22.1627" fill="#B57144"/>
<circle cx="612.096" cy="417.3" r="22.1627" fill="#B57144"/>
<circle cx="404" cy="617.057" r="53.5" fill="#AA4400"/>
<circle cx="389.022" cy="590.285" r="12.9854" fill="#B57144"/>
<circle cx="389.022" cy="590.285" r="12.9854" fill="#B57144"/>
<circle cx="376.037" cy="624.129" r="12.9854" fill="#B57144"/>
<circle cx="376.037" cy="624.129" r="12.9854" fill="#B57144"/>
<circle cx="419.596" cy="624.129" r="22.1627" fill="#B57144"/>
<circle cx="419.596" cy="624.129" r="22.1627" fill="#B57144"/>
</svg>
