<svg width="113" height="111" viewBox="0 0 113 111" fill="none" xmlns="http://www.w3.org/2000/svg">
<path fill-rule="evenodd" clip-rule="evenodd" d="M75.1425 6.11146C63.9269 -2.03715 48.7399 -2.03716 37.5243 6.11145L13.2315 23.7612C2.01585 31.9098 -2.67721 46.3536 1.60676 59.5383L10.8858 88.0963C15.1698 101.281 27.4564 110.208 41.3196 110.208H71.3472C85.2105 110.208 97.497 101.281 101.781 88.0963L111.06 59.5383C115.344 46.3536 110.651 31.9099 99.4354 23.7612L75.1425 6.11146ZM75.1425 21.4024C63.9269 13.2538 48.7399 13.2538 37.5243 21.4024L27.774 28.4864C16.5584 36.635 11.8654 51.0788 16.1493 64.2635L19.8736 75.7256C24.1576 88.9103 36.4442 97.8371 50.3074 97.8371H62.3594C76.2227 97.8371 88.5092 88.9103 92.7932 75.7256L96.5175 64.2635C100.801 51.0788 96.1084 36.635 84.8928 28.4864L75.1425 21.4024Z" fill="#BB112A"/>
</svg>
