<svg width="776" height="776" viewBox="0 0 776 776" fill="none" xmlns="http://www.w3.org/2000/svg">
<circle cx="388" cy="388" r="387.112" fill="#D7C0A3"/>
<circle cx="388" cy="388" r="326.085" fill="#B21807"/>
<circle cx="388" cy="388" r="298.146" fill="#ECDB55"/>
<path fill-rule="evenodd" clip-rule="evenodd" d="M306.836 156.047C295.62 147.898 280.433 147.898 269.218 156.047L244.925 173.697C233.709 181.845 229.016 196.289 233.3 209.474L242.579 238.032C246.863 251.217 259.15 260.143 273.013 260.143H303.041C316.904 260.143 329.19 251.217 333.474 238.032L342.753 209.474C347.037 196.289 342.344 181.845 331.129 173.697L306.836 156.047ZM306.836 171.338C295.62 163.189 280.433 163.189 269.218 171.338L259.467 178.422C248.252 186.571 243.559 201.014 247.843 214.199L251.567 225.661C255.851 238.846 268.137 247.773 282.001 247.773H294.053C307.916 247.773 320.203 238.846 324.487 225.661L328.211 214.199C332.495 201.014 327.802 186.571 316.586 178.422L306.836 171.338Z" fill="#BB112A"/>
<path fill-rule="evenodd" clip-rule="evenodd" d="M406.809 535.809C395.594 527.66 380.406 527.66 369.191 535.809L344.898 553.458C333.682 561.607 328.989 576.051 333.273 589.235L342.552 617.793C346.836 630.978 359.123 639.905 372.986 639.905H403.014C416.877 639.905 429.164 630.978 433.448 617.793L442.727 589.235C447.011 576.051 442.318 561.607 431.102 553.458L406.809 535.809ZM406.809 551.1C395.594 542.951 380.406 542.951 369.191 551.1L359.441 558.183C348.225 566.332 343.532 580.776 347.816 593.961L351.54 605.423C355.824 618.607 368.111 627.534 381.974 627.534H394.026C407.889 627.534 420.176 618.607 424.46 605.423L428.184 593.961C432.468 580.776 427.775 566.332 416.559 558.183L406.809 551.1Z" fill="#BB112A"/>
<path fill-rule="evenodd" clip-rule="evenodd" d="M215.276 384.291C204.061 376.142 188.874 376.142 177.658 384.29L153.365 401.94C142.15 410.089 137.457 424.533 141.74 437.717L151.02 466.275C155.304 479.46 167.59 488.387 181.453 488.387H211.481C225.344 488.387 237.631 479.46 241.915 466.275L251.194 437.717C255.478 424.533 250.785 410.089 239.569 401.94L215.276 384.291ZM215.276 399.581C204.061 391.433 188.874 391.433 177.658 399.581L167.908 406.665C156.692 414.814 151.999 429.258 156.283 442.443L160.007 453.905C164.291 467.089 176.578 476.016 190.441 476.016H202.493C216.356 476.016 228.643 467.089 232.927 453.905L236.651 442.443C240.935 429.258 236.242 414.814 225.027 406.665L215.276 399.581Z" fill="#BB112A"/>
<path fill-rule="evenodd" clip-rule="evenodd" d="M577.925 274.083C566.709 265.934 551.522 265.934 540.307 274.083L516.014 291.733C504.798 299.881 500.105 314.325 504.389 327.51L513.668 356.068C517.952 369.252 530.239 378.179 544.102 378.179H574.13C587.993 378.179 600.279 369.252 604.563 356.068L613.842 327.51C618.126 314.325 613.433 299.881 602.218 291.733L577.925 274.083ZM577.925 289.374C566.709 281.225 551.522 281.225 540.307 289.374L530.556 296.458C519.341 304.606 514.648 319.05 518.932 332.235L522.656 343.697C526.94 356.882 539.226 365.808 553.09 365.808H565.142C579.005 365.808 591.292 356.882 595.576 343.697L599.3 332.235C603.584 319.05 598.891 304.606 587.675 296.458L577.925 289.374Z" fill="#BB112A"/>
<path fill-rule="evenodd" clip-rule="evenodd" d="M247.318 561.14C260.711 561.14 271.569 550.282 271.569 536.889C271.569 523.495 260.711 512.638 247.318 512.638C233.925 512.638 223.067 523.495 223.067 536.889C223.067 550.282 233.925 561.14 247.318 561.14ZM247.318 550.418C254.79 550.418 260.848 544.361 260.848 536.889C260.848 529.417 254.79 523.359 247.318 523.359C239.846 523.359 233.789 529.417 233.789 536.889C233.789 544.361 239.846 550.418 247.318 550.418Z" fill="black"/>
<path fill-rule="evenodd" clip-rule="evenodd" d="M335.847 447.733C349.24 447.733 360.098 436.875 360.098 423.482C360.098 410.088 349.24 399.231 335.847 399.231C322.453 399.231 311.596 410.088 311.596 423.482C311.596 436.875 322.453 447.733 335.847 447.733ZM335.847 437.011C343.319 437.011 349.376 430.954 349.376 423.482C349.376 416.01 343.319 409.952 335.847 409.952C328.375 409.952 322.317 416.01 322.317 423.482C322.317 430.954 328.375 437.011 335.847 437.011Z" fill="black"/>
<path fill-rule="evenodd" clip-rule="evenodd" d="M475.231 536.889C488.624 536.889 499.482 526.031 499.482 512.638C499.482 499.244 488.624 488.387 475.231 488.387C461.837 488.387 450.98 499.244 450.98 512.638C450.98 526.031 461.837 536.889 475.231 536.889ZM475.231 526.167C482.703 526.167 488.76 520.11 488.76 512.638C488.76 505.166 482.703 499.108 475.231 499.108C467.759 499.108 461.701 505.166 461.701 512.638C461.701 520.11 467.759 526.167 475.231 526.167Z" fill="black"/>
<path fill-rule="evenodd" clip-rule="evenodd" d="M559.116 529.697C572.509 529.697 583.367 518.84 583.367 505.446C583.367 492.053 572.509 481.195 559.116 481.195C545.722 481.195 534.865 492.053 534.865 505.446C534.865 518.84 545.722 529.697 559.116 529.697ZM559.116 518.976C566.588 518.976 572.645 512.918 572.645 505.446C572.645 497.974 566.588 491.917 559.116 491.917C551.644 491.917 545.586 497.974 545.586 505.446C545.586 512.918 551.644 518.976 559.116 518.976Z" fill="black"/>
<path fill-rule="evenodd" clip-rule="evenodd" d="M412.251 197.801C425.644 197.801 436.502 186.944 436.502 173.55C436.502 160.157 425.644 149.299 412.251 149.299C398.858 149.299 388 160.157 388 173.55C388 186.944 398.858 197.801 412.251 197.801ZM412.251 187.08C419.723 187.08 425.78 181.022 425.78 173.55C425.78 166.078 419.723 160.021 412.251 160.021C404.779 160.021 398.721 166.078 398.721 173.55C398.721 181.022 404.779 187.08 412.251 187.08Z" fill="black"/>
<path fill-rule="evenodd" clip-rule="evenodd" d="M523.238 229.29C536.631 229.29 547.489 218.433 547.489 205.039C547.489 191.646 536.631 180.788 523.238 180.788C509.844 180.788 498.987 191.646 498.987 205.039C498.987 218.433 509.844 229.29 523.238 229.29ZM523.238 218.569C530.71 218.569 536.767 212.512 536.767 205.039C536.767 197.567 530.71 191.51 523.238 191.51C515.766 191.51 509.708 197.567 509.708 205.039C509.708 212.512 515.766 218.569 523.238 218.569Z" fill="black"/>
<path fill-rule="evenodd" clip-rule="evenodd" d="M196.467 308.645C209.861 308.645 220.718 297.788 220.718 284.394C220.718 271.001 209.861 260.143 196.467 260.143C183.074 260.143 172.216 271.001 172.216 284.394C172.216 297.788 183.074 308.645 196.467 308.645ZM196.467 297.924C203.939 297.924 209.997 291.866 209.997 284.394C209.997 276.922 203.939 270.865 196.467 270.865C188.995 270.865 182.938 276.922 182.938 284.394C182.938 291.866 188.995 297.924 196.467 297.924Z" fill="black"/>
<path fill-rule="evenodd" clip-rule="evenodd" d="M444.295 402.43C457.688 402.43 468.546 391.572 468.546 378.179C468.546 364.786 457.688 353.928 444.295 353.928C430.902 353.928 420.044 364.786 420.044 378.179C420.044 391.572 430.902 402.43 444.295 402.43ZM444.295 391.709C451.767 391.709 457.824 385.651 457.824 378.179C457.824 370.707 451.767 364.65 444.295 364.65C436.823 364.65 430.766 370.707 430.766 378.179C430.766 385.651 436.823 391.709 444.295 391.709Z" fill="black"/>
<path d="M235.196 312.405C251.362 284.405 291.776 284.405 307.942 312.405L309.963 315.905C326.129 343.905 305.921 378.905 273.59 378.905H269.548C237.217 378.905 217.009 343.905 233.175 315.905L235.196 312.405Z" fill="#FF6347"/>
<path fill-rule="evenodd" clip-rule="evenodd" d="M263.734 301.009C254.572 303.041 246.097 308.686 240.751 317.946C228.413 339.314 241.079 365.495 263.734 370.483V301.009ZM279.404 370.483C302.059 365.495 314.725 339.314 302.388 317.946C297.042 308.686 288.566 303.041 279.404 301.009V370.483Z" fill="#C44933"/>
<path d="M370.031 236.81C386.197 208.81 426.611 208.81 442.777 236.81L444.798 240.31C460.964 268.31 440.757 303.31 408.425 303.31H404.383C372.052 303.31 351.845 268.31 368.01 240.31L370.031 236.81Z" fill="#FF6347"/>
<path fill-rule="evenodd" clip-rule="evenodd" d="M398.57 225.414C389.407 227.446 380.932 233.091 375.586 242.35C363.249 263.719 375.914 289.9 398.57 294.888V225.414ZM414.239 294.888C436.894 289.9 449.56 263.719 437.223 242.35C431.877 233.091 423.401 227.445 414.239 225.414V294.888Z" fill="#C44933"/>
<path d="M328.273 441.179C344.439 413.179 384.854 413.179 401.02 441.179L403.04 444.679C419.206 472.679 398.999 507.679 366.667 507.679H362.626C330.294 507.679 310.087 472.679 326.253 444.679L328.273 441.179Z" fill="#FF6347"/>
<path fill-rule="evenodd" clip-rule="evenodd" d="M356.812 429.783C347.65 431.815 339.174 437.46 333.828 446.72C321.491 468.088 334.157 494.269 356.812 499.257V429.783ZM372.481 499.257C395.137 494.269 407.803 468.088 395.465 446.72C390.119 437.46 381.644 431.815 372.481 429.783V499.257Z" fill="#C44933"/>
<path d="M311.03 397.609C330.707 390.797 347.235 413.694 334.571 430.224L284.24 495.926C275.684 507.096 258.777 506.855 250.542 495.446L222.664 456.822C214.428 445.413 219.524 429.291 232.821 424.687L311.03 397.609Z" fill="#5F895F"/>
<rect x="321.998" y="410.124" width="7.09039" height="100.26" rx="3.5452" transform="rotate(54.1784 321.998 410.124)" fill="#A9D1A9"/>
<path d="M395.585 308.209C395.883 329.031 368.958 337.544 357.233 320.335L310.628 251.94C302.705 240.312 308.235 224.334 321.652 220.092L367.07 205.732C380.486 201.49 394.197 211.384 394.398 225.454L395.585 308.209Z" fill="#5F895F"/>
<rect x="380.262" y="314.7" width="7.09039" height="100.26" rx="3.5452" transform="rotate(162.454 380.262 314.7)" fill="#A9D1A9"/>
<path d="M406.979 438.894C392.897 423.554 407.325 399.279 427.53 404.317L507.835 424.341C521.488 427.746 527.996 443.351 520.807 455.447L496.469 496.394C489.28 508.49 472.462 510.232 462.947 499.866L406.979 438.894Z" fill="#5F895F"/>
<rect x="414.094" y="423.851" width="7.09039" height="100.26" rx="3.5452" transform="rotate(-59.2744 414.094 423.851)" fill="#A9D1A9"/>
<path d="M629.913 321.516C645.226 307.405 669.529 321.785 664.53 341.999L644.664 422.344C641.287 436.004 625.694 442.542 613.584 435.376L572.589 411.12C560.479 403.954 558.705 387.14 569.052 377.604L629.913 321.516Z" fill="#5F895F"/>
<rect x="644.97" y="328.602" width="7.09039" height="100.26" rx="3.5452" transform="rotate(30.6128 644.97 328.602)" fill="#A9D1A9"/>
</svg>
